<svg width="98" height="40" viewBox="0 0 98 40" fill="none" xmlns="http://www.w3.org/2000/svg">
<path d="M34.472 35.845C33.716 35.845 33.032 35.719 32.42 35.467C31.808 35.203 31.286 34.849 30.854 34.405C30.422 33.949 30.086 33.433 29.846 32.857C29.618 32.269 29.504 31.651 29.504 31.003C29.504 30.103 29.702 29.281 30.098 28.537C30.506 27.793 31.082 27.199 31.826 26.755C32.582 26.299 33.47 26.071 34.49 26.071C35.522 26.071 36.404 26.299 37.136 26.755C37.868 27.199 38.426 27.793 38.81 28.537C39.206 29.269 39.404 30.061 39.404 30.913C39.404 31.057 39.398 31.207 39.386 31.363C39.374 31.507 39.362 31.627 39.35 31.723H32.06C32.108 32.203 32.246 32.623 32.474 32.983C32.714 33.343 33.014 33.619 33.374 33.811C33.746 33.991 34.142 34.081 34.562 34.081C35.042 34.081 35.492 33.967 35.912 33.739C36.344 33.499 36.638 33.187 36.794 32.803L38.864 33.379C38.636 33.859 38.306 34.285 37.874 34.657C37.454 35.029 36.956 35.323 36.38 35.539C35.804 35.743 35.168 35.845 34.472 35.845ZM32.006 30.193H36.938C36.89 29.713 36.752 29.299 36.524 28.951C36.308 28.591 36.02 28.315 35.66 28.123C35.3 27.919 34.898 27.817 34.454 27.817C34.022 27.817 33.626 27.919 33.266 28.123C32.918 28.315 32.63 28.591 32.402 28.951C32.186 29.299 32.054 29.713 32.006 30.193ZM45.2654 35.845C44.4974 35.845 43.8074 35.719 43.1954 35.467C42.5834 35.203 42.0614 34.843 41.6294 34.387C41.1974 33.919 40.8614 33.391 40.6214 32.803C40.3934 32.215 40.2794 31.597 40.2794 30.949C40.2794 30.061 40.4774 29.251 40.8734 28.519C41.2814 27.775 41.8574 27.181 42.6014 26.737C43.3454 26.293 44.2274 26.071 45.2474 26.071C46.2674 26.071 47.1434 26.293 47.8754 26.737C48.6074 27.181 49.1534 27.763 49.5134 28.483L47.1554 29.203C46.9514 28.855 46.6814 28.591 46.3454 28.411C46.0094 28.219 45.6374 28.123 45.2294 28.123C44.7734 28.123 44.3534 28.243 43.9694 28.483C43.5974 28.711 43.3034 29.041 43.0874 29.473C42.8714 29.893 42.7634 30.385 42.7634 30.949C42.7634 31.501 42.8714 31.993 43.0874 32.425C43.3154 32.845 43.6154 33.181 43.9874 33.433C44.3594 33.673 44.7734 33.793 45.2294 33.793C45.5174 33.793 45.7874 33.745 46.0394 33.649C46.3034 33.553 46.5374 33.421 46.7414 33.253C46.9454 33.085 47.0954 32.893 47.1914 32.677L49.5494 33.397C49.3334 33.865 49.0154 34.285 48.5954 34.657C48.1874 35.029 47.7014 35.323 47.1374 35.539C46.5854 35.743 45.9614 35.845 45.2654 35.845ZM59.7995 35.665H57.3875V30.373C57.3875 29.641 57.2435 29.095 56.9555 28.735C56.6795 28.375 56.2955 28.195 55.8035 28.195C55.5155 28.195 55.2095 28.279 54.8855 28.447C54.5615 28.615 54.2675 28.849 54.0035 29.149C53.7515 29.437 53.5655 29.773 53.4455 30.157V35.665H51.0335V22.525H53.4455V27.979C53.7935 27.379 54.2675 26.911 54.8675 26.575C55.4675 26.239 56.1215 26.071 56.8295 26.071C57.4415 26.071 57.9395 26.179 58.3235 26.395C58.7075 26.599 59.0075 26.881 59.2235 27.241C59.4395 27.589 59.5895 27.985 59.6735 28.429C59.7575 28.861 59.7995 29.311 59.7995 29.779V35.665ZM64.2766 35.665L60.8026 26.233H63.3046L65.6806 33.469L68.0746 26.233H70.3606L66.9046 35.665H64.2766ZM71.6351 35.665V26.233H74.0471V35.665H71.6351ZM71.6351 24.919V22.525H74.0471V24.919H71.6351ZM76.205 22.525H78.617V32.641C78.617 33.073 78.689 33.367 78.833 33.523C78.977 33.667 79.175 33.739 79.427 33.739C79.619 33.739 79.817 33.715 80.021 33.667C80.225 33.619 80.405 33.559 80.561 33.487L80.885 35.323C80.561 35.479 80.183 35.599 79.751 35.683C79.319 35.767 78.929 35.809 78.581 35.809C77.825 35.809 77.237 35.611 76.817 35.215C76.409 34.807 76.205 34.231 76.205 33.487V22.525ZM81.9179 22.525H84.3299V32.641C84.3299 33.073 84.4019 33.367 84.5459 33.523C84.6899 33.667 84.8879 33.739 85.1399 33.739C85.3319 33.739 85.5299 33.715 85.7339 33.667C85.9379 33.619 86.1179 33.559 86.2739 33.487L86.5979 35.323C86.2739 35.479 85.8959 35.599 85.4639 35.683C85.0319 35.767 84.6419 35.809 84.2939 35.809C83.5379 35.809 82.9499 35.611 82.5299 35.215C82.1219 34.807 81.9179 34.231 81.9179 33.487V22.525ZM92.0228 35.845C91.2668 35.845 90.5828 35.719 89.9708 35.467C89.3588 35.203 88.8368 34.849 88.4048 34.405C87.9728 33.949 87.6368 33.433 87.3968 32.857C87.1688 32.269 87.0548 31.651 87.0548 31.003C87.0548 30.103 87.2528 29.281 87.6488 28.537C88.0568 27.793 88.6328 27.199 89.3768 26.755C90.1328 26.299 91.0208 26.071 92.0408 26.071C93.0728 26.071 93.9548 26.299 94.6868 26.755C95.4188 27.199 95.9768 27.793 96.3608 28.537C96.7568 29.269 96.9548 30.061 96.9548 30.913C96.9548 31.057 96.9488 31.207 96.9368 31.363C96.9248 31.507 96.9128 31.627 96.9008 31.723H89.6108C89.6588 32.203 89.7968 32.623 90.0248 32.983C90.2648 33.343 90.5648 33.619 90.9248 33.811C91.2968 33.991 91.6928 34.081 92.1128 34.081C92.5928 34.081 93.0428 33.967 93.4628 33.739C93.8948 33.499 94.1888 33.187 94.3448 32.803L96.4148 33.379C96.1868 33.859 95.8568 34.285 95.4248 34.657C95.0048 35.029 94.5068 35.323 93.9308 35.539C93.3548 35.743 92.7188 35.845 92.0228 35.845ZM89.5568 30.193H94.4888C94.4408 29.713 94.3028 29.299 94.0748 28.951C93.8588 28.591 93.5708 28.315 93.2108 28.123C92.8508 27.919 92.4488 27.817 92.0048 27.817C91.5728 27.817 91.1768 27.919 90.8168 28.123C90.4688 28.315 90.1808 28.591 89.9528 28.951C89.7368 29.299 89.6048 29.713 89.5568 30.193Z" fill="#808080"/>
<path d="M32.42 35.467L32.2219 35.9262L32.2296 35.9294L32.42 35.467ZM30.854 34.405L30.491 34.7489L30.4956 34.7537L30.854 34.405ZM29.846 32.857L29.3797 33.0379L29.3845 33.0493L29.846 32.857ZM30.098 28.537L29.6596 28.2966L29.6566 28.3021L30.098 28.537ZM31.826 26.755L32.0822 27.1844L32.0842 27.1832L31.826 26.755ZM37.136 26.755L36.8716 27.1795L36.8767 27.1825L37.136 26.755ZM38.81 28.537L38.3656 28.7664L38.3702 28.7749L38.81 28.537ZM39.386 31.363L39.8843 31.4046L39.8845 31.4014L39.386 31.363ZM39.35 31.723V32.223H39.7914L39.8461 31.7851L39.35 31.723ZM32.06 31.723V31.223H31.5075L31.5625 31.7728L32.06 31.723ZM32.474 32.983L32.0515 33.2506L32.058 33.2604L32.474 32.983ZM33.374 33.811L33.1387 34.2522L33.1474 34.2568L33.1562 34.2611L33.374 33.811ZM35.912 33.739L36.1506 34.1785L36.1548 34.1761L35.912 33.739ZM36.794 32.803L36.928 32.3213L36.4986 32.2018L36.3308 32.6149L36.794 32.803ZM38.864 33.379L39.3156 33.5936L39.5707 33.0567L38.998 32.8973L38.864 33.379ZM37.874 34.657L37.5477 34.2781L37.5425 34.2827L37.874 34.657ZM36.38 35.539L36.547 36.0104L36.5556 36.0072L36.38 35.539ZM32.006 30.193L31.5085 30.1433L31.4535 30.693H32.006V30.193ZM36.938 30.193V30.693H37.4905L37.4355 30.1433L36.938 30.193ZM36.524 28.951L36.0953 29.2083L36.1003 29.2168L36.1058 29.2251L36.524 28.951ZM35.66 28.123L35.4134 28.5582L35.4247 28.5642L35.66 28.123ZM33.266 28.123L33.5076 28.5609L33.5125 28.5581L33.266 28.123ZM32.402 28.951L31.9796 28.6835L31.9772 28.6874L32.402 28.951ZM34.472 35.345C33.7721 35.345 33.154 35.2285 32.6104 35.0047L32.2296 35.9294C32.91 36.2095 33.6599 36.345 34.472 36.345V35.345ZM32.618 35.0079C32.0616 34.7679 31.5953 34.4499 31.2124 34.0564L30.4956 34.7537C30.9767 35.2481 31.5544 35.6382 32.222 35.9261L32.618 35.0079ZM31.217 34.0612C30.8265 33.649 30.524 33.1843 30.3075 32.6647L29.3845 33.0493C29.648 33.6818 30.0175 34.2491 30.491 34.7489L31.217 34.0612ZM30.3122 32.6763C30.1072 32.1475 30.004 31.5909 30.004 31.003H29.004C29.004 31.7111 29.1288 32.3906 29.3798 33.0378L30.3122 32.6763ZM30.004 31.003C30.004 30.1792 30.1845 29.4388 30.5394 28.772L29.6566 28.3021C29.2195 29.1233 29.004 30.0268 29.004 31.003H30.004ZM30.5364 28.7775C30.9007 28.1132 31.413 27.5838 32.0822 27.1844L31.5698 26.3257C30.751 26.8143 30.1113 27.4728 29.6596 28.2966L30.5364 28.7775ZM32.0842 27.1832C32.7509 26.7811 33.5466 26.571 34.49 26.571V25.571C33.3934 25.571 32.4131 25.817 31.5678 26.3269L32.0842 27.1832ZM34.49 26.571C35.4471 26.571 36.2333 26.7818 36.8716 27.1794L37.4004 26.3306C36.5747 25.8163 35.5969 25.571 34.49 25.571V26.571ZM36.8767 27.1825C37.5318 27.5799 38.0249 28.1061 38.3657 28.7664L39.2543 28.3077C38.8271 27.48 38.2042 26.8182 37.3953 26.3275L36.8767 27.1825ZM38.3702 28.7749C38.7257 29.4321 38.904 30.1421 38.904 30.913H39.904C39.904 29.98 39.6863 29.106 39.2498 28.2991L38.3702 28.7749ZM38.904 30.913C38.904 31.0432 38.8986 31.1804 38.8875 31.3247L39.8845 31.4014C39.8974 31.2337 39.904 31.0709 39.904 30.913H38.904ZM38.8877 31.3215C38.876 31.4616 38.8647 31.5743 38.8539 31.661L39.8461 31.7851C39.8593 31.6798 39.872 31.5524 39.8843 31.4046L38.8877 31.3215ZM39.35 31.223H32.06V32.223H39.35V31.223ZM31.5625 31.7728C31.6172 32.3199 31.7767 32.8166 32.0516 33.2506L32.8964 32.7155C32.7153 32.4295 32.5988 32.0861 32.5575 31.6733L31.5625 31.7728ZM32.058 33.2604C32.3409 33.6848 32.7015 34.019 33.1387 34.2522L33.6093 33.3699C33.3266 33.2191 33.0871 33.0013 32.89 32.7057L32.058 33.2604ZM33.1562 34.2611C33.5973 34.4745 34.0678 34.581 34.562 34.581V33.581C34.2162 33.581 33.8947 33.5076 33.5918 33.361L33.1562 34.2611ZM34.562 34.581C35.1249 34.581 35.657 34.4464 36.1505 34.1785L35.6735 33.2996C35.327 33.4877 34.9591 33.581 34.562 33.581V34.581ZM36.1548 34.1761C36.6666 33.8918 37.0504 33.5003 37.2572 32.9912L36.3308 32.6149C36.2256 32.8738 36.0214 33.1063 35.6692 33.302L36.1548 34.1761ZM36.66 33.2847L38.73 33.8607L38.998 32.8973L36.928 32.3213L36.66 33.2847ZM38.4124 33.1645C38.2164 33.5771 37.9309 33.9482 37.5477 34.2782L38.2003 35.0359C38.6811 34.6218 39.0556 34.141 39.3156 33.5936L38.4124 33.1645ZM37.5425 34.2827C37.1725 34.6104 36.7287 34.8743 36.2044 35.0709L36.5556 36.0072C37.1833 35.7718 37.7355 35.4476 38.2055 35.0313L37.5425 34.2827ZM36.2131 35.0677C35.6976 35.2503 35.1189 35.345 34.472 35.345V36.345C35.2171 36.345 35.9104 36.2358 36.5469 36.0104L36.2131 35.0677ZM32.006 30.693H36.938V29.693H32.006V30.693ZM37.4355 30.1433C37.3808 29.5961 37.2209 29.1023 36.9422 28.677L36.1058 29.2251C36.2831 29.4958 36.3992 29.83 36.4405 30.2428L37.4355 30.1433ZM36.9527 28.6938C36.6915 28.2584 36.3377 27.9178 35.8953 27.6819L35.4247 28.5642C35.7023 28.7123 35.9245 28.9236 36.0953 29.2083L36.9527 28.6938ZM35.9065 27.688C35.4659 27.4383 34.9779 27.317 34.454 27.317V28.317C34.8181 28.317 35.1341 28.3997 35.4135 28.5581L35.9065 27.688ZM34.454 27.317C33.9396 27.317 33.458 27.4395 33.0195 27.688L33.5125 28.5581C33.794 28.3986 34.1044 28.317 34.454 28.317V27.317ZM33.0245 27.6852C32.5975 27.9208 32.2493 28.2577 31.9796 28.6835L32.8244 29.2186C33.0107 28.9243 33.2385 28.7093 33.5075 28.5608L33.0245 27.6852ZM31.9772 28.6874C31.7144 29.1107 31.5627 29.6008 31.5085 30.1433L32.5035 30.2428C32.5453 29.8253 32.6576 29.4873 32.8268 29.2147L31.9772 28.6874ZM43.1954 35.467L42.9973 35.9262L43.005 35.9294L43.1954 35.467ZM41.6294 34.387L41.262 34.7262L41.2664 34.7309L41.6294 34.387ZM40.6214 32.803L40.1551 32.9838L40.1585 32.992L40.6214 32.803ZM40.8734 28.519L40.435 28.2786L40.4336 28.2811L40.8734 28.519ZM42.6014 26.737L42.8576 27.1664L42.6014 26.737ZM47.8754 26.737L47.6161 27.1645L47.8754 26.737ZM49.5134 28.483L49.6594 28.9612L50.2251 28.7885L49.9606 28.2594L49.5134 28.483ZM47.1554 29.203L46.724 29.4559L46.9237 29.7966L47.3014 29.6812L47.1554 29.203ZM46.3454 28.411L46.0972 28.8453L46.1093 28.8518L46.3454 28.411ZM43.9694 28.483L44.2307 28.9094L44.2344 28.907L43.9694 28.483ZM43.0874 29.473L43.5321 29.7017L43.5346 29.6966L43.0874 29.473ZM43.0874 32.425L42.6402 32.6486L42.6439 32.6562L42.648 32.6636L43.0874 32.425ZM43.9874 33.433L43.7069 33.8471L43.7163 33.8532L43.9874 33.433ZM46.0394 33.649L45.8685 33.1791L45.8614 33.1818L46.0394 33.649ZM46.7414 33.253L47.0592 33.639V33.639L46.7414 33.253ZM47.1914 32.677L47.3374 32.1988L46.9142 32.0696L46.7345 32.474L47.1914 32.677ZM49.5494 33.397L50.0034 33.6066L50.2435 33.0862L49.6954 32.9188L49.5494 33.397ZM48.5954 34.657L48.2638 34.2827L48.2585 34.2876L48.5954 34.657ZM47.1374 35.539L47.3107 36.0081L47.3162 36.006L47.1374 35.539ZM45.2654 35.345C44.5524 35.345 43.9285 35.2282 43.3858 35.0047L43.005 35.9294C43.6863 36.2099 44.4424 36.345 45.2654 36.345V35.345ZM43.3934 35.0079C42.8398 34.7691 42.375 34.447 41.9924 34.0432L41.2664 34.7309C41.7478 35.2391 42.327 35.637 42.9973 35.9261L43.3934 35.0079ZM41.9968 34.0479C41.6052 33.6237 41.3016 33.1466 41.0843 32.6141L40.1585 32.992C40.4211 33.6355 40.7895 34.2144 41.262 34.7262L41.9968 34.0479ZM41.0876 32.6223C40.8825 32.0935 40.7794 31.5369 40.7794 30.949H39.7794C39.7794 31.6571 39.9042 32.3366 40.1552 32.9838L41.0876 32.6223ZM40.7794 30.949C40.7794 30.1384 40.9593 29.411 41.3132 28.7569L40.4336 28.2811C39.9954 29.0911 39.7794 29.9837 39.7794 30.949H40.7794ZM41.3118 28.7595C41.676 28.0952 42.1884 27.5658 42.8576 27.1664L42.3452 26.3077C41.5264 26.7963 40.8867 27.4548 40.435 28.2786L41.3118 28.7595ZM42.8576 27.1664C43.5114 26.7763 44.3015 26.571 45.2474 26.571V25.571C44.1533 25.571 43.1794 25.8098 42.3452 26.3077L42.8576 27.1664ZM45.2474 26.571C46.1936 26.571 46.9761 26.7763 47.6161 27.1645L48.1347 26.3095C47.3107 25.8097 46.3412 25.571 45.2474 25.571V26.571ZM47.6161 27.1645C48.2728 27.5629 48.7511 28.0764 49.0662 28.7066L49.9606 28.2594C49.5557 27.4497 48.9419 26.7992 48.1347 26.3095L47.6161 27.1645ZM49.3674 28.0048L47.0094 28.7248L47.3014 29.6812L49.6594 28.9612L49.3674 28.0048ZM47.5867 28.9502C47.339 28.5276 47.0034 28.1963 46.5815 27.9703L46.1093 28.8518C46.3594 28.9857 46.5638 29.1825 46.724 29.4559L47.5867 28.9502ZM46.5935 27.9769C46.1778 27.7394 45.7195 27.623 45.2294 27.623V28.623C45.5553 28.623 45.841 28.6987 46.0973 28.8452L46.5935 27.9769ZM45.2294 27.623C44.6804 27.623 44.1684 27.769 43.7044 28.059L44.2344 28.907C44.5383 28.7171 44.8664 28.623 45.2294 28.623V27.623ZM43.7081 28.0567C43.248 28.3387 42.8934 28.7431 42.6402 29.2494L43.5346 29.6966C43.7134 29.339 43.9467 29.0834 44.2307 28.9093L43.7081 28.0567ZM42.6427 29.2444C42.3839 29.7476 42.2634 30.3208 42.2634 30.949H43.2634C43.2634 30.4492 43.3588 30.0385 43.532 29.7017L42.6427 29.2444ZM42.2634 30.949C42.2634 31.5675 42.3848 32.1379 42.6402 32.6486L43.5346 32.2014C43.358 31.8482 43.2634 31.4346 43.2634 30.949H42.2634ZM42.648 32.6636C42.9117 33.1493 43.2645 33.5473 43.707 33.847L44.2678 33.0191C43.9663 32.8148 43.7191 32.5407 43.5268 32.1865L42.648 32.6636ZM43.7163 33.8532C44.1717 34.1469 44.6803 34.293 45.2294 34.293V33.293C44.8665 33.293 44.5471 33.1991 44.2585 33.0129L43.7163 33.8532ZM45.2294 34.293C45.5741 34.293 45.9048 34.2354 46.2174 34.1163L45.8614 33.1818C45.67 33.2547 45.4607 33.293 45.2294 33.293V34.293ZM46.2103 34.1189C46.5243 34.0047 46.8087 33.8454 47.0592 33.639L46.4235 32.8671C46.2661 32.9967 46.0825 33.1013 45.8685 33.1791L46.2103 34.1189ZM47.0592 33.639C47.316 33.4275 47.5172 33.175 47.6483 32.8801L46.7345 32.474C46.6736 32.611 46.5748 32.7425 46.4235 32.8671L47.0592 33.639ZM47.0454 33.1552L49.4034 33.8752L49.6954 32.9188L47.3374 32.1988L47.0454 33.1552ZM49.0954 33.1875C48.9109 33.5873 48.6367 33.9525 48.2639 34.2827L48.9269 35.0313C49.3941 34.6176 49.7559 34.1427 50.0034 33.6066L49.0954 33.1875ZM48.2585 34.2876C47.9008 34.6137 47.4697 34.8763 46.9586 35.0721L47.3162 36.006C47.933 35.7697 48.474 35.4444 48.9323 35.0265L48.2585 34.2876ZM46.9641 35.07C46.4767 35.2502 45.9128 35.345 45.2654 35.345V36.345C46.01 36.345 46.6941 36.2359 47.3107 36.008L46.9641 35.07ZM59.7995 35.665V36.165H60.2995V35.665H59.7995ZM57.3875 35.665H56.8875V36.165H57.3875V35.665ZM56.9555 28.735L56.5587 29.0393L56.5651 29.0474L56.9555 28.735ZM54.8855 28.447L54.6554 28.0032L54.8855 28.447ZM54.0035 29.149L53.6282 28.8187L53.6273 28.8198L54.0035 29.149ZM53.4455 30.157L52.9683 30.0079L52.9455 30.0807V30.157H53.4455ZM53.4455 35.665V36.165H53.9455V35.665H53.4455ZM51.0335 35.665H50.5335V36.165H51.0335V35.665ZM51.0335 22.525V22.025H50.5335V22.525H51.0335ZM53.4455 22.525H53.9455V22.025H53.4455V22.525ZM53.4455 27.979H52.9455V29.8377L53.8781 28.2299L53.4455 27.979ZM54.8675 26.575L55.1118 27.0113V27.0113L54.8675 26.575ZM58.3235 26.395L58.0783 26.831L58.089 26.8366L58.3235 26.395ZM59.2235 27.241L58.7948 27.4983L58.7987 27.5047L59.2235 27.241ZM59.6735 28.429L59.1823 28.522L59.1827 28.5245L59.6735 28.429ZM59.7995 35.165H57.3875V36.165H59.7995V35.165ZM57.8875 35.665V30.373H56.8875V35.665H57.8875ZM57.8875 30.373C57.8875 29.59 57.736 28.9102 57.346 28.4227L56.5651 29.0474C56.7511 29.2799 56.8875 29.6921 56.8875 30.373H57.8875ZM57.3524 28.4308C56.9729 27.9358 56.4359 27.695 55.8035 27.695V28.695C56.1552 28.695 56.3862 28.8142 56.5587 29.0393L57.3524 28.4308ZM55.8035 27.695C55.4169 27.695 55.032 27.8079 54.6554 28.0032L55.1157 28.8909C55.3871 28.7502 55.6142 28.695 55.8035 28.695V27.695ZM54.6554 28.0032C54.2714 28.2023 53.9292 28.4766 53.6282 28.8187L54.3789 29.4794C54.6059 29.2215 54.8517 29.0278 55.1157 28.8909L54.6554 28.0032ZM53.6273 28.8198C53.3271 29.1628 53.108 29.561 52.9683 30.0079L53.9228 30.3062C54.0231 29.9851 54.176 29.7113 54.3798 29.4783L53.6273 28.8198ZM52.9455 30.157V35.665H53.9455V30.157H52.9455ZM53.4455 35.165H51.0335V36.165H53.4455V35.165ZM51.5335 35.665V22.525H50.5335V35.665H51.5335ZM51.0335 23.025H53.4455V22.025H51.0335V23.025ZM52.9455 22.525V27.979H53.9455V22.525H52.9455ZM53.8781 28.2299C54.1815 27.7067 54.5908 27.3031 55.1118 27.0113L54.6232 26.1388C53.9443 26.519 53.4056 27.0513 53.013 27.7282L53.8781 28.2299ZM55.1118 27.0113C55.6349 26.7184 56.2045 26.571 56.8295 26.571V25.571C56.0386 25.571 55.3002 25.7597 54.6232 26.1388L55.1118 27.0113ZM56.8295 26.571C57.3874 26.571 57.7928 26.6702 58.0784 26.8308L58.5687 25.9593C58.0863 25.6879 57.4957 25.571 56.8295 25.571V26.571ZM58.089 26.8366C58.3957 26.9995 58.6273 27.2191 58.7948 27.4983L59.6523 26.9838C59.3878 26.543 59.0194 26.1985 58.5581 25.9535L58.089 26.8366ZM58.7987 27.5047C58.9791 27.7952 59.1085 28.1323 59.1823 28.522L60.1648 28.3361C60.0706 27.8378 59.9 27.3828 59.6484 26.9774L58.7987 27.5047ZM59.1827 28.5245C59.2603 28.9231 59.2995 29.3411 59.2995 29.779H60.2995C60.2995 29.281 60.2548 28.799 60.1644 28.3336L59.1827 28.5245ZM59.2995 29.779V35.665H60.2995V29.779H59.2995ZM64.2766 35.665L63.8074 35.8379L63.9279 36.165H64.2766V35.665ZM60.8026 26.233V25.733H60.0856L60.3334 26.4058L60.8026 26.233ZM63.3046 26.233L63.7797 26.0771L63.6667 25.733H63.3046V26.233ZM65.6806 33.469L65.2056 33.625L65.6788 35.0663L66.1553 33.6261L65.6806 33.469ZM68.0746 26.233V25.733H67.7134L67.5999 26.076L68.0746 26.233ZM70.3606 26.233L70.8301 26.4051L71.0763 25.733H70.3606V26.233ZM66.9046 35.665V36.165H67.2539L67.3741 35.8371L66.9046 35.665ZM64.7458 35.4922L61.2718 26.0602L60.3334 26.4058L63.8074 35.8379L64.7458 35.4922ZM60.8026 26.733H63.3046V25.733H60.8026V26.733ZM62.8296 26.389L65.2056 33.625L66.1557 33.3131L63.7797 26.0771L62.8296 26.389ZM66.1553 33.6261L68.5493 26.3901L67.5999 26.076L65.2059 33.312L66.1553 33.6261ZM68.0746 26.733H70.3606V25.733H68.0746V26.733ZM69.8911 26.061L66.4352 35.493L67.3741 35.8371L70.8301 26.4051L69.8911 26.061ZM66.9046 35.165H64.2766V36.165H66.9046V35.165ZM71.6351 35.665H71.1351V36.165H71.6351V35.665ZM71.6351 26.233V25.733H71.1351V26.233H71.6351ZM74.0471 26.233H74.5471V25.733H74.0471V26.233ZM74.0471 35.665V36.165H74.5471V35.665H74.0471ZM71.6351 24.919H71.1351V25.419H71.6351V24.919ZM71.6351 22.525V22.025H71.1351V22.525H71.6351ZM74.0471 22.525H74.5471V22.025H74.0471V22.525ZM74.0471 24.919V25.419H74.5471V24.919H74.0471ZM72.1351 35.665V26.233H71.1351V35.665H72.1351ZM71.6351 26.733H74.0471V25.733H71.6351V26.733ZM73.5471 26.233V35.665H74.5471V26.233H73.5471ZM74.0471 35.165H71.6351V36.165H74.0471V35.165ZM72.1351 24.919V22.525H71.1351V24.919H72.1351ZM71.6351 23.025H74.0471V22.025H71.6351V23.025ZM73.5471 22.525V24.919H74.5471V22.525H73.5471ZM74.0471 24.419H71.6351V25.419H74.0471V24.419ZM76.205 22.525V22.025H75.705V22.525H76.205ZM78.617 22.525H79.117V22.025H78.617V22.525ZM78.833 33.523L78.4656 33.8622L78.4724 33.8695L78.4794 33.8766L78.833 33.523ZM80.021 33.667L79.9065 33.1803L80.021 33.667ZM80.561 33.487L81.0534 33.4001L80.9406 32.7611L80.3515 33.0331L80.561 33.487ZM80.885 35.323L81.1019 35.7735L81.4432 35.6092L81.3774 35.2361L80.885 35.323ZM79.751 35.683L79.6556 35.1922L79.751 35.683ZM76.817 35.215L76.4634 35.5686L76.4686 35.5738L76.474 35.5788L76.817 35.215ZM76.205 23.025H78.617V22.025H76.205V23.025ZM78.117 22.525V32.641H79.117V22.525H78.117ZM78.117 32.641C78.117 33.0881 78.1831 33.5561 78.4656 33.8622L79.2004 33.1839C79.2051 33.189 79.1806 33.1643 79.1567 33.0666C79.1333 32.9712 79.117 32.8325 79.117 32.641H78.117ZM78.4794 33.8766C78.7384 34.1356 79.0758 34.239 79.427 34.239V33.239C79.2742 33.239 79.2156 33.1985 79.1866 33.1695L78.4794 33.8766ZM79.427 34.239C79.6609 34.239 79.8974 34.2098 80.1355 34.1537L79.9065 33.1803C79.7366 33.2203 79.5771 33.239 79.427 33.239V34.239ZM80.1355 34.1537C80.3654 34.0997 80.5783 34.0298 80.7705 33.941L80.3515 33.0331C80.2317 33.0883 80.0846 33.1384 79.9065 33.1803L80.1355 34.1537ZM80.0686 33.5739L80.3926 35.4099L81.3774 35.2361L81.0534 33.4001L80.0686 33.5739ZM80.6681 34.8725C80.3902 35.0064 80.0545 35.1147 79.6556 35.1922L79.8464 36.1738C80.3115 36.0834 80.7318 35.9517 81.1019 35.7735L80.6681 34.8725ZM79.6556 35.1922C79.2472 35.2716 78.8899 35.309 78.581 35.309V36.309C78.9681 36.309 79.3908 36.2624 79.8464 36.1738L79.6556 35.1922ZM78.581 35.309C77.9118 35.309 77.4613 35.1354 77.16 34.8512L76.474 35.5788C77.0127 36.0867 77.7382 36.309 78.581 36.309V35.309ZM77.1706 34.8615C76.8813 34.5723 76.705 34.1385 76.705 33.487H75.705C75.705 34.3235 75.9367 35.0418 76.4634 35.5686L77.1706 34.8615ZM76.705 33.487V22.525H75.705V33.487H76.705ZM81.9179 22.525V22.025H81.4179V22.525H81.9179ZM84.3299 22.525H84.8299V22.025H84.3299V22.525ZM84.5459 33.523L84.1785 33.8622L84.1853 33.8695L84.1923 33.8766L84.5459 33.523ZM85.7339 33.667L85.6194 33.1803L85.7339 33.667ZM86.2739 33.487L86.7663 33.4001L86.6535 32.7611L86.0644 33.0331L86.2739 33.487ZM86.5979 35.323L86.8148 35.7735L87.1561 35.6092L87.0903 35.2361L86.5979 35.323ZM85.4639 35.683L85.3685 35.1922L85.4639 35.683ZM82.5299 35.215L82.1763 35.5686L82.1815 35.5738L82.1869 35.5788L82.5299 35.215ZM81.9179 23.025H84.3299V22.025H81.9179V23.025ZM83.8299 22.525V32.641H84.8299V22.525H83.8299ZM83.8299 32.641C83.8299 33.0881 83.896 33.5561 84.1785 33.8622L84.9133 33.1839C84.918 33.189 84.8935 33.1643 84.8695 33.0666C84.8462 32.9712 84.8299 32.8325 84.8299 32.641H83.8299ZM84.1923 33.8766C84.4513 34.1356 84.7887 34.239 85.1399 34.239V33.239C84.9871 33.239 84.9285 33.1985 84.8994 33.1695L84.1923 33.8766ZM85.1399 34.239C85.3738 34.239 85.6103 34.2098 85.8484 34.1537L85.6194 33.1803C85.4495 33.2203 85.29 33.239 85.1399 33.239V34.239ZM85.8484 34.1537C86.0783 34.0997 86.2911 34.0298 86.4834 33.941L86.0644 33.0331C85.9446 33.0883 85.7975 33.1384 85.6194 33.1803L85.8484 34.1537ZM85.7815 33.5739L86.1055 35.4099L87.0903 35.2361L86.7663 33.4001L85.7815 33.5739ZM86.381 34.8725C86.1031 35.0064 85.7674 35.1147 85.3685 35.1922L85.5593 36.1738C86.0244 36.0834 86.4447 35.9517 86.8148 35.7735L86.381 34.8725ZM85.3685 35.1922C84.9601 35.2716 84.6028 35.309 84.2939 35.309V36.309C84.681 36.309 85.1037 36.2624 85.5593 36.1738L85.3685 35.1922ZM84.2939 35.309C83.6247 35.309 83.1742 35.1354 82.8729 34.8512L82.1869 35.5788C82.7256 36.0867 83.4511 36.309 84.2939 36.309V35.309ZM82.8834 34.8615C82.5942 34.5723 82.4179 34.1385 82.4179 33.487H81.4179C81.4179 34.3235 81.6496 35.0418 82.1763 35.5686L82.8834 34.8615ZM82.4179 33.487V22.525H81.4179V33.487H82.4179ZM89.9708 35.467L89.7727 35.9262L89.7804 35.9294L89.9708 35.467ZM88.4048 34.405L88.0418 34.7489L88.0464 34.7537L88.4048 34.405ZM87.3968 32.857L86.9305 33.0379L86.9352 33.0493L87.3968 32.857ZM87.6488 28.537L87.2103 28.2966L87.2074 28.3021L87.6488 28.537ZM89.3768 26.755L89.633 27.1844L89.635 27.1832L89.3768 26.755ZM94.6868 26.755L94.4224 27.1795L94.4275 27.1825L94.6868 26.755ZM96.3608 28.537L95.9164 28.7664L95.921 28.7749L96.3608 28.537ZM96.9368 31.363L97.4351 31.4046L97.4353 31.4014L96.9368 31.363ZM96.9008 31.723V32.223H97.3422L97.3969 31.7851L96.9008 31.723ZM89.6108 31.723V31.223H89.0583L89.1133 31.7728L89.6108 31.723ZM90.0248 32.983L89.6023 33.2506L89.6088 33.2604L90.0248 32.983ZM90.9248 33.811L90.6895 34.2522L90.6982 34.2568L90.707 34.2611L90.9248 33.811ZM93.4628 33.739L93.7013 34.1785L93.7056 34.1761L93.4628 33.739ZM94.3448 32.803L94.4788 32.3213L94.0493 32.2018L93.8815 32.6149L94.3448 32.803ZM96.4148 33.379L96.8664 33.5936L97.1214 33.0567L96.5488 32.8973L96.4148 33.379ZM95.4248 34.657L95.0985 34.2781L95.0933 34.2827L95.4248 34.657ZM93.9308 35.539L94.0977 36.0104L94.1063 36.0072L93.9308 35.539ZM89.5568 30.193L89.0593 30.1433L89.0043 30.693H89.5568V30.193ZM94.4888 30.193V30.693H95.0413L94.9863 30.1433L94.4888 30.193ZM94.0748 28.951L93.646 29.2083L93.6511 29.2168L93.6565 29.2251L94.0748 28.951ZM93.2108 28.123L92.9642 28.5582L92.9755 28.5642L93.2108 28.123ZM90.8168 28.123L91.0583 28.5609L91.0633 28.5581L90.8168 28.123ZM89.9528 28.951L89.5304 28.6835L89.528 28.6874L89.9528 28.951ZM92.0228 35.345C91.3229 35.345 90.7048 35.2285 90.1612 35.0047L89.7804 35.9294C90.4608 36.2095 91.2107 36.345 92.0228 36.345V35.345ZM90.1688 35.0079C89.6124 34.7679 89.1461 34.4499 88.7631 34.0564L88.0464 34.7537C88.5275 35.2481 89.1052 35.6382 89.7727 35.9261L90.1688 35.0079ZM88.7678 34.0612C88.3773 33.649 88.0748 33.1843 87.8583 32.6647L86.9352 33.0493C87.1988 33.6818 87.5683 34.2491 88.0418 34.7489L88.7678 34.0612ZM87.863 32.6763C87.6579 32.1475 87.5548 31.5909 87.5548 31.003H86.5548C86.5548 31.7111 86.6796 32.3906 86.9306 33.0378L87.863 32.6763ZM87.5548 31.003C87.5548 30.1792 87.7352 29.4388 88.0902 28.772L87.2074 28.3021C86.7703 29.1233 86.5548 30.0268 86.5548 31.003H87.5548ZM88.0872 28.7775C88.4514 28.1132 88.9638 27.5838 89.633 27.1844L89.1206 26.3257C88.3018 26.8143 87.6621 27.4728 87.2104 28.2966L88.0872 28.7775ZM89.635 27.1832C90.3016 26.7811 91.0974 26.571 92.0408 26.571V25.571C90.9441 25.571 89.9639 25.817 89.1185 26.3269L89.635 27.1832ZM92.0408 26.571C92.9979 26.571 93.7841 26.7818 94.4224 27.1794L94.9512 26.3306C94.1254 25.8163 93.1477 25.571 92.0408 25.571V26.571ZM94.4275 27.1825C95.0826 27.5799 95.5757 28.1061 95.9165 28.7664L96.8051 28.3077C96.3779 27.48 95.755 26.8182 94.9461 26.3275L94.4275 27.1825ZM95.921 28.7749C96.2765 29.4321 96.4548 30.1421 96.4548 30.913H97.4548C97.4548 29.98 97.237 29.106 96.8006 28.2991L95.921 28.7749ZM96.4548 30.913C96.4548 31.0432 96.4494 31.1804 96.4383 31.3247L97.4353 31.4014C97.4482 31.2337 97.4548 31.0709 97.4548 30.913H96.4548ZM96.4385 31.3215C96.4268 31.4616 96.4155 31.5743 96.4046 31.661L97.3969 31.7851C97.4101 31.6798 97.4227 31.5524 97.4351 31.4046L96.4385 31.3215ZM96.9008 31.223H89.6108V32.223H96.9008V31.223ZM89.1133 31.7728C89.168 32.3199 89.3275 32.8166 89.6024 33.2506L90.4472 32.7155C90.266 32.4295 90.1496 32.0861 90.1083 31.6733L89.1133 31.7728ZM89.6088 33.2604C89.8917 33.6848 90.2522 34.019 90.6895 34.2522L91.1601 33.3699C90.8773 33.2191 90.6379 33.0013 90.4408 32.7057L89.6088 33.2604ZM90.707 34.2611C91.148 34.4745 91.6186 34.581 92.1128 34.581V33.581C91.7669 33.581 91.4455 33.5076 91.1426 33.361L90.707 34.2611ZM92.1128 34.581C92.6757 34.581 93.2078 34.4464 93.7013 34.1785L93.2242 33.2996C92.8778 33.4877 92.5098 33.581 92.1128 33.581V34.581ZM93.7056 34.1761C94.2174 33.8918 94.6012 33.5003 94.808 32.9912L93.8815 32.6149C93.7763 32.8738 93.5722 33.1063 93.22 33.302L93.7056 34.1761ZM94.2107 33.2847L96.2807 33.8607L96.5488 32.8973L94.4788 32.3213L94.2107 33.2847ZM95.9631 33.1645C95.7672 33.5771 95.4816 33.9482 95.0985 34.2782L95.751 35.0359C96.2319 34.6218 96.6064 34.141 96.8664 33.5936L95.9631 33.1645ZM95.0933 34.2827C94.7233 34.6104 94.2795 34.8743 93.7552 35.0709L94.1063 36.0072C94.7341 35.7718 95.2863 35.4476 95.7563 35.0313L95.0933 34.2827ZM93.7639 35.0677C93.2484 35.2503 92.6697 35.345 92.0228 35.345V36.345C92.7678 36.345 93.4612 36.2358 94.0977 36.0104L93.7639 35.0677ZM89.5568 30.693H94.4888V29.693H89.5568V30.693ZM94.9863 30.1433C94.9316 29.5961 94.7716 29.1023 94.493 28.677L93.6565 29.2251C93.8339 29.4958 93.95 29.83 93.9913 30.2428L94.9863 30.1433ZM94.5035 28.6938C94.2423 28.2584 93.8884 27.9178 93.4461 27.6819L92.9755 28.5642C93.2531 28.7123 93.4752 28.9236 93.646 29.2083L94.5035 28.6938ZM93.4573 27.688C93.0166 27.4383 92.5287 27.317 92.0048 27.317V28.317C92.3689 28.317 92.6849 28.3997 92.9643 28.5581L93.4573 27.688ZM92.0048 27.317C91.4903 27.317 91.0088 27.4395 90.5703 27.688L91.0633 28.5581C91.3447 28.3986 91.6552 28.317 92.0048 28.317V27.317ZM90.5752 27.6852C90.1483 27.9208 89.8 28.2577 89.5304 28.6835L90.3752 29.2186C90.5615 28.9243 90.7893 28.7093 91.0583 28.5608L90.5752 27.6852ZM89.528 28.6874C89.2652 29.1107 89.1135 29.6008 89.0593 30.1433L90.0543 30.2428C90.0961 29.8253 90.2084 29.4873 90.3776 29.2147L89.528 28.6874Z" fill="#808080"/>
<rect x="25" y="35.665" width="10" height="3" rx="0.736508" transform="rotate(-90 25 35.665)" fill="#808080"/>
<rect x="19.8631" y="19.6362" width="17.6762" height="2.81781" rx="0.736508" transform="rotate(-0.546063 19.8631 19.6362)" fill="#808080"/>
<rect x="20.0316" y="37.3115" width="16.1737" height="2.94603" rx="0.736508" transform="rotate(-90.5461 20.0316 37.3115)" fill="#808080"/>
<path d="M17.8724 29.8386C15.4992 29.87 13.17 29.1969 11.1794 27.9045C9.18879 26.6121 7.62612 24.7584 6.68899 22.5779C5.75187 20.3973 5.4824 17.9879 5.91465 15.6542C6.3469 13.3205 7.46146 11.1674 9.11738 9.46718C10.7733 7.76693 12.8962 6.59592 15.2177 6.1022C17.5391 5.60849 19.9549 5.81425 22.1594 6.69347C24.3639 7.57269 26.2582 9.08589 27.6027 11.0417C28.9472 12.9975 29.6816 15.3081 29.7129 17.6813L20.9726 17.7967C20.9641 17.1522 20.7646 16.5247 20.3995 15.9935C20.0344 15.4624 19.5199 15.0514 18.9212 14.8126C18.3225 14.5739 17.6665 14.518 17.036 14.6521C16.4056 14.7861 15.829 15.1042 15.3793 15.5659C14.9296 16.0277 14.6269 16.6124 14.5095 17.2462C14.3922 17.8799 14.4653 18.5343 14.7198 19.1265C14.9743 19.7186 15.3987 20.2221 15.9393 20.573C16.4799 20.924 17.1125 21.1068 17.757 21.0983L17.8724 29.8386Z" fill="#808080"/>
</svg>
