<svg width="100" height="104" viewBox="0 0 100 104" fill="none" xmlns="http://www.w3.org/2000/svg">
<rect width="48.1745" height="7.69385" rx="0.626839" transform="matrix(0.0359036 -1.00044 0.9989 0.00550033 51.456 49.614)" fill="url(#paint0_linear_316_2)"/>
<rect width="44.1613" height="8.02909" rx="0.626839" transform="matrix(-0.9989 -0.00550033 0.0359036 -1.00044 99.6653 49.8796)" fill="url(#paint1_linear_316_2)"/>
<path d="M79.025 55.4599C78.8166 61.9313 76.693 68.2538 72.9229 73.6279C69.1528 79.002 63.9055 83.1864 57.8445 85.6519C51.7835 88.1174 45.181 88.7533 38.8721 87.4791C32.5631 86.205 26.831 83.078 22.4006 78.4937C17.9702 73.9094 15.0404 68.0736 13.9819 61.7243C12.9233 55.375 13.7835 48.7973 16.4536 42.8231C19.1237 36.8489 23.4838 31.7465 28.9826 28.1611C34.4813 24.5757 40.8718 22.6684 47.3458 22.6802L46.578 46.514C44.8198 46.5108 43.0843 47.0288 41.591 48.0025C40.0977 48.9762 38.9136 50.3619 38.1884 51.9843C37.4633 53.6068 37.2297 55.3931 37.5172 57.1174C37.8047 58.8418 38.6003 60.4266 39.8035 61.6716C41.0067 62.9166 42.5634 63.7658 44.2768 64.1118C45.9901 64.4579 47.7832 64.2852 49.4292 63.6156C51.0752 62.946 52.5003 61.8097 53.5242 60.3502C54.548 58.8907 55.1247 57.1737 55.1814 55.4162L79.025 55.4599Z" fill="url(#paint2_linear_316_2)"/>
<defs>
<linearGradient id="paint0_linear_316_2" x1="28.1307" y1="4.15661" x2="28.082" y2="-1.01822" gradientUnits="userSpaceOnUse">
<stop stop-color="#FF0844"/>
<stop offset="1" stop-color="#FFB199" stop-opacity="0"/>
</linearGradient>
<linearGradient id="paint1_linear_316_2" x1="25.7873" y1="4.33772" x2="25.7293" y2="-1.06244" gradientUnits="userSpaceOnUse">
<stop stop-color="#FF0844"/>
<stop offset="1" stop-color="#FFB199" stop-opacity="0"/>
</linearGradient>
<linearGradient id="paint2_linear_316_2" x1="52.1056" y1="53.3891" x2="20.2869" y2="24.0308" gradientUnits="userSpaceOnUse">
<stop stop-color="#FF0844"/>
<stop offset="1" stop-color="#FFB199" stop-opacity="0"/>
</linearGradient>
</defs>
</svg>
